# xmcd
#
# Track frame offsets:
#	150
#	2587
#	17672
#	32020
#	49122
#	65522
#	86753
#	98092
#	110825
#	130430
#	145287
#	164383
#	179498
#	195249
#	206772
#	223170
#	240563
#	255405
#
# Disc length: 3939 seconds
#
# Revision: 4
# Processed by: cddbd v1.5.2PL0 Copyright (c) Steve Scherf et al.
# Submitted via: EasyCDDAExtractor 5.0.6
#
DISCID=000f6112
DTITLE=Various Artist - Battleaxe Warriors 2
DYEAR=2002
DGENRE=Hip-Hop
TTITLE0=Rob The Viking - Intro
TTITLE1=Son Doobie - Por Amor
TTITLE2=Moka Only - Red Dragon
TTITLE3=Swollen Members - Fuel Injected (Remix) (Feat. Saukrates, Moka Only)
TTITLE4=Buc Fifty - Bangin
TTITLE5=Abstract Rule - Stop Biting
TTITLE6=Mr.Brady - War Paint (Feat. Buc Fifty)
TTITLE7=Son Doobie - Reinstated
TTITLE8=Swollen Members - Poker Face (Feat. Buc Fifty)
TTITLE9=Abstract Rule - Zoom
TTITLE10=Code name: Scorpion - To Make Millions (Feat. Mad Child)
TTITLE11=Mr.Brady - Lifestyles
TTITLE12=Buc Fifty - Death Appeal
TTITLE13=Swollen Members - Temptation
TTITLE14=Son Doobie - You Wit That
TTITLE15=Moka Only - I'll Be Cool
TTITLE16=Murge - Up And Up (Feat. LMNO)
TTITLE17=Code name: Scorpion - Smokin' In Here
EXTD=YEAR: 2002
EXTT0=
EXTT1=
EXTT2=
EXTT3=
EXTT4=
EXTT5=
EXTT6=
EXTT7=
EXTT8=
EXTT9=
EXTT10=
EXTT11=
EXTT12=
EXTT13=
EXTT14=
EXTT15=
EXTT16=
EXTT17=
PLAYORDER=
